<?xml version="1.0" encoding="UTF-8" standalone="no"?>
<svg
   xmlns:dc="http://purl.org/dc/elements/1.1/"
   xmlns:cc="http://creativecommons.org/ns#"
   xmlns:rdf="http://www.w3.org/1999/02/22-rdf-syntax-ns#"
   xmlns:svg="http://www.w3.org/2000/svg"
   xmlns="http://www.w3.org/2000/svg"
   xmlns:sodipodi="http://sodipodi.sourceforge.net/DTD/sodipodi-0.dtd"
   xmlns:inkscape="http://www.inkscape.org/namespaces/inkscape"
   inkscape:version="1.0 (4035a4fb49, 2020-05-01)"
   sodipodi:docname="4.svg"
   width="50"
   height="50"
   viewBox="0 0 50 50"
   version="1.1"
   id="svg8">
  <sodipodi:namedview
     inkscape:current-layer="svg8"
     inkscape:window-maximized="1"
     inkscape:window-y="0"
     inkscape:window-x="0"
     inkscape:cy="18.814491"
     inkscape:cx="14.954395"
     inkscape:zoom="8.65"
     showgrid="false"
     id="namedview8"
     inkscape:window-height="1020"
     inkscape:window-width="1920"
     inkscape:pageshadow="2"
     inkscape:pageopacity="0"
     guidetolerance="10"
     gridtolerance="10"
     objecttolerance="10"
     borderopacity="1"
     bordercolor="#666666"
     pagecolor="#ffffff" />
  <defs
     id="defs2" />
  <metadata
     id="metadata5">
    <rdf:RDF>
      <cc:Work
         rdf:about="">
        <dc:format>image/svg+xml</dc:format>
        <dc:type
           rdf:resource="http://purl.org/dc/dcmitype/StillImage" />
        <dc:title />
      </cc:Work>
    </rdf:RDF>
  </metadata>
  <circle
     r="22.5"
     cy="25.007004"
     cx="25"
     id="path837"
     style="fill:#b3b3b3;fill-opacity:1;stroke:#000000;stroke-width:1.51706;stroke-linecap:round;stroke-miterlimit:4;stroke-dasharray:none" />
  <g
     id="layer1"
     transform="matrix(0.80643282,0,0,0.80643282,-811.55791,-146.12172)">
    <g
       transform="matrix(0.88262427,0,0,0.88262427,1448.8291,15.280771)"
       id="g4563">
      <path
         transform="matrix(1.8128084,0,0,1.8128084,-1226.631,-70.629098)"
         d="m 418.31641,148.68164 c -0.90523,0.008 -1.80783,0.10853 -2.69727,0.32031 -3.27617,0.7801 -6.14641,3.11176 -7.58203,6.15821 -1.43562,3.04644 -1.40574,6.74434 0.0781,9.76757 1.41044,-0.0708 2.78459,-0.69706 3.76563,-1.71289 0.11193,-0.11589 0.20305,-0.24733 0.30469,-0.37109 -0.14157,0.93011 -0.19035,1.87165 -0.10743,2.80859 0.15941,1.80112 0.78674,3.55897 1.80274,5.05469 1.01599,1.49572 2.41957,2.72513 4.03516,3.53711 1.61558,0.81198 3.43958,1.2041 5.24609,1.12695 1.80651,-0.0772 3.59039,-0.62353 5.13086,-1.57031 -0.10248,-1.40455 -0.7204,-2.76457 -1.71094,-3.76562 -0.96661,-0.97688 -2.23358,-1.58818 -3.48047,-2.16602 -1.24689,-0.57785 -2.52425,-1.15692 -3.53515,-2.08789 -0.65287,-0.60124 -1.18332,-1.34977 -1.45313,-2.19531 -0.26981,-0.84555 -0.26601,-1.79043 0.0898,-2.60352 0.34061,-0.77824 0.97756,-1.39582 1.68946,-1.85937 0.7119,-0.46355 1.5041,-0.78831 2.2832,-1.12696 0.53918,-0.23436 1.07584,-0.48322 1.58008,-0.7832 0.40936,0.51661 0.79091,1.06397 1.19531,1.58203 0.42401,0.54317 0.88623,1.06381 1.43945,1.47461 0.55323,0.4108 1.20414,0.70992 1.89063,0.76953 0.63258,0.0549 1.27789,-0.0986 1.83008,-0.41211 0.55219,-0.31347 1.01052,-0.78416 1.32812,-1.33398 0.63521,-1.09965 0.68545,-2.48036 0.28516,-3.68555 -0.40029,-1.20518 -1.21776,-2.24367 -2.19336,-3.05664 -0.97559,-0.81297 -2.10657,-1.41578 -3.26172,-1.94336 -2.49502,-1.13951 -5.23744,-1.94945 -7.95312,-1.92578 z"
         style="fill:#000000;stroke:none;stroke-width:0.55163px;stroke-linecap:butt;stroke-linejoin:miter;stroke-opacity:1"
         id="path4434" />
    </g>
  </g>
</svg>
