<?xml version="1.0" encoding="UTF-8" standalone="no"?>
<svg
   xmlns:dc="http://purl.org/dc/elements/1.1/"
   xmlns:cc="http://creativecommons.org/ns#"
   xmlns:rdf="http://www.w3.org/1999/02/22-rdf-syntax-ns#"
   xmlns:svg="http://www.w3.org/2000/svg"
   xmlns="http://www.w3.org/2000/svg"
   xmlns:xlink="http://www.w3.org/1999/xlink"
   xmlns:sodipodi="http://sodipodi.sourceforge.net/DTD/sodipodi-0.dtd"
   xmlns:inkscape="http://www.inkscape.org/namespaces/inkscape"
   inkscape:version="1.0 (4035a4fb49, 2020-05-01)"
   sodipodi:docname="board.svg"
   width="589"
   height="584"
   viewBox="0 0 589 584"
   version="1.1"
   id="svg8">
  <sodipodi:namedview
     inkscape:current-layer="svg8"
     inkscape:window-maximized="1"
     inkscape:window-y="0"
     inkscape:window-x="0"
     inkscape:cy="355.48328"
     inkscape:cx="274.53901"
     inkscape:zoom="0.71061644"
     inkscape:snap-bbox-midpoints="true"
     inkscape:snap-bbox-edge-midpoints="true"
     inkscape:bbox-nodes="true"
     inkscape:bbox-paths="true"
     inkscape:snap-bbox="true"
     showgrid="false"
     id="namedview9"
     inkscape:window-height="1020"
     inkscape:window-width="1920"
     inkscape:pageshadow="2"
     inkscape:pageopacity="0"
     guidetolerance="10"
     gridtolerance="10"
     objecttolerance="10"
     borderopacity="1"
     bordercolor="#666666"
     pagecolor="#ffffff" />
  <defs
     id="defs2">
    <clipPath
       clipPathUnits="userSpaceOnUse"
       id="clipPath1438">
      <rect
         y="289.42929"
         x="-543.42548"
         height="80"
         width="80"
         id="rect1440"
         style="fill:#ff0000;stroke:#007aff;stroke-width:0;stroke-linecap:round" />
    </clipPath>
    <clipPath
       id="clipPath1438-3"
       clipPathUnits="userSpaceOnUse">
      <rect
         style="fill:#ff0000;stroke:#007aff;stroke-width:0;stroke-linecap:round"
         id="rect1440-6"
         width="80"
         height="80"
         x="-543.42548"
         y="289.42929" />
    </clipPath>
  </defs>
  <metadata
     id="metadata5">
    <rdf:RDF>
      <cc:Work
         rdf:about="">
        <dc:format>image/svg+xml</dc:format>
        <dc:type
           rdf:resource="http://purl.org/dc/dcmitype/StillImage" />
        <dc:title></dc:title>
      </cc:Work>
    </rdf:RDF>
  </metadata>
  <g
     mask="none"
     clip-path="none"
     id="layer1"
     transform="translate(464.66153,-277.99466)" />
  <g
     transform="translate(581.58906,-235.0428)"
     id="layer1-5">
    <path
       d="m -539.90181,307.99548 31.26544,-31.26544 m -52.10906,10.42182 31.26543,-31.26544 m -41.68725,20.84362 31.26544,-31.26544 m -41.68725,18.75927 42.72943,42.72944 m -1.04218,1.04217 31.26544,-31.26544 m -41.68725,20.84362 31.26543,-31.26542 m -41.68724,20.84362 31.26543,-31.26544 m -41.68725,20.84362 31.26544,-31.26544 m -12.50617,-10.4218 42.72943,42.72943 m -71.91051,-13.54836 42.72943,42.72942 m -42.72943,-40.64505 31.26544,-31.26543 m -31.26544,31.26543 31.26544,-31.26543 m 93.79631,156.32715 31.26544,-31.26543 m -41.68725,20.84362 31.26543,-31.26543 m -41.68724,20.84362 31.26543,-31.26544 m -41.68725,20.84363 31.26544,-31.26544 m -41.68725,18.75926 42.72943,42.72944 m -1.04218,1.04217 31.26544,-31.26543 m -41.68725,20.84362 31.26543,-31.26543 m -41.68724,20.84362 31.26543,-31.26544 m -41.68725,20.84363 31.26544,-31.26544 m -12.50617,-10.42181 42.72943,42.72943 m -71.91051,-13.54836 42.72943,42.72943 m -42.72943,-40.64506 31.26544,-31.26543 m -41.68725,20.84362 31.26543,-31.26543 m -41.68724,20.84362 31.26543,-31.26544 m -41.68725,20.84363 31.26544,-31.26544 m -41.68725,18.75926 42.72943,42.72944 m -1.04218,1.04217 31.26544,-31.26543 m -41.68725,20.84362 31.26543,-31.26543 m -41.68724,20.84362 31.26543,-31.26544 m -41.68725,20.84363 31.26544,-31.26544 m -41.68725,20.84363 31.26544,-31.26544 m -2.08436,0 42.72943,42.72943 m -71.91051,-13.54836 42.72943,42.72943"
       style="fill:none;stroke:#000000;stroke-width:3.28929;stroke-linecap:round;stroke-linejoin:miter;stroke-miterlimit:4;stroke-dasharray:none;stroke-opacity:1"
       id="use863-7-3-0" />
    <use
       height="100%"
       width="100%"
       transform="translate(125.06175,125.06172)"
       id="use867"
       xlink:href="#use863-7-3-0"
       y="0"
       x="0" />
    <use
       height="100%"
       width="100%"
       transform="translate(124.01957,126.1039)"
       id="use869"
       xlink:href="#use867"
       y="0"
       x="0" />
    <use
       height="100%"
       width="100%"
       transform="translate(126.10393,124.01954)"
       id="use871"
       xlink:href="#use869"
       y="0"
       x="0" />
    <use
       height="100%"
       width="100%"
       transform="translate(125.06175,125.06172)"
       id="use873"
       xlink:href="#use871"
       y="0"
       x="0" />
  </g>
  <g
     id="layer1-5-3"
     transform="matrix(1,0,0,-1,519.77734,883.2794)">
    <path
       id="use863-7-3-0-5"
       style="fill:none;stroke:#000000;stroke-width:3.28929;stroke-linecap:round;stroke-linejoin:miter;stroke-miterlimit:4;stroke-dasharray:none;stroke-opacity:1"
       d="m -539.90181,307.99548 31.26544,-31.26544 m -52.10906,10.42182 31.26543,-31.26544 m -41.68725,20.84362 31.26544,-31.26544 m -41.68725,18.75927 42.72943,42.72944 m -1.04218,1.04217 31.26544,-31.26544 m -41.68725,20.84362 31.26543,-31.26542 m -41.68724,20.84362 31.26543,-31.26544 m -41.68725,20.84362 31.26544,-31.26544 m -12.50617,-10.4218 42.72943,42.72943 m -71.91051,-13.54836 42.72943,42.72942 m -42.72943,-40.64505 31.26544,-31.26543 m -31.26544,31.26543 31.26544,-31.26543 m 93.79631,156.32715 31.26544,-31.26543 m -41.68725,20.84362 31.26543,-31.26543 m -41.68724,20.84362 31.26543,-31.26544 m -41.68725,20.84363 31.26544,-31.26544 m -41.68725,18.75926 42.72943,42.72944 m -1.04218,1.04217 31.26544,-31.26543 m -41.68725,20.84362 31.26543,-31.26543 m -41.68724,20.84362 31.26543,-31.26544 m -41.68725,20.84363 31.26544,-31.26544 m -12.50617,-10.42181 42.72943,42.72943 m -71.91051,-13.54836 42.72943,42.72943 m -42.72943,-40.64506 31.26544,-31.26543 m -41.68725,20.84362 31.26543,-31.26543 m -41.68724,20.84362 31.26543,-31.26544 m -41.68725,20.84363 31.26544,-31.26544 m -41.68725,18.75926 42.72943,42.72944 m -1.04218,1.04217 31.26544,-31.26543 m -41.68725,20.84362 31.26543,-31.26543 m -41.68724,20.84362 31.26543,-31.26544 m -41.68725,20.84363 31.26544,-31.26544 m -41.68725,20.84363 31.26544,-31.26544 m -2.08436,0 42.72943,42.72943 m -71.91051,-13.54836 42.72943,42.72943" />
    <use
       x="0"
       y="0"
       xlink:href="#use863-7-3-0-5"
       id="use867-6"
       transform="translate(125.06175,125.06172)"
       width="100%"
       height="100%" />
    <use
       x="0"
       y="0"
       xlink:href="#use867-6"
       id="use869-2"
       transform="translate(124.01957,126.1039)"
       width="100%"
       height="100%" />
    <use
       x="0"
       y="0"
       xlink:href="#use869-2"
       id="use871-9"
       transform="translate(126.10393,124.01954)"
       width="100%"
       height="100%" />
    <use
       x="0"
       y="0"
       xlink:href="#use871-9"
       id="use873-1"
       transform="translate(125.06175,125.06172)"
       width="100%"
       height="100%" />
  </g>
  <g
     transform="matrix(0.80710984,0,0,0.80710984,55.756098,73.824396)"
     id="g965">
    <path
       sodipodi:type="star"
       style="fill:#000000;stroke:none;stroke-width:4.89773;stroke-linecap:round;stroke-dasharray:9.79547, 4.89773, 2.44887, 4.89773;stroke-opacity:1"
       id="path929"
       sodipodi:sides="5"
       sodipodi:cx="290.30765"
       sodipodi:cy="93.658409"
       sodipodi:r1="25.887434"
       sodipodi:r2="12.943717"
       sodipodi:arg1="0.78539816"
       sodipodi:arg2="1.4137167"
       inkscape:flatsided="false"
       inkscape:rounded="0"
       inkscape:randomized="0"
       d="m 308.61283,111.96359 -16.28034,-5.52082 -13.77749,10.28151 0.21971,-17.189546 -14.03578,-9.926012 16.41613,-5.102903 5.1029,-16.416127 9.92601,14.035781 17.18955,-0.219713 -10.28151,13.777493 z"
       inkscape:transform-center-x="1.2514221"
       inkscape:transform-center-y="-1.2514221" />
    <circle
       style="fill:none;stroke:#000000;stroke-width:2.44887;stroke-linecap:round;stroke-miterlimit:4;stroke-dasharray:none;stroke-opacity:1"
       id="path961"
       cx="289.05621"
       cy="92.406975"
       r="35.189491" />
  </g>
  <use
     height="100%"
     width="100%"
     transform="rotate(-67.089372,330.18944,322.44016)"
     id="use967"
     xlink:href="#g965"
     y="0"
     x="0" />
  <use
     x="0"
     y="0"
     xlink:href="#g965"
     id="use967-0"
     transform="rotate(-119.38609,373.89122,294.20618)"
     width="100%"
     height="100%" />
  <use
     inkscape:transform-center-y="-40.836909"
     inkscape:transform-center-x="10.560573"
     height="100%"
     width="100%"
     transform="rotate(35.789934,138.0531,463.63209)"
     id="use999"
     xlink:href="#g965"
     y="0"
     x="0" />
</svg>
