<?xml version="1.0" encoding="UTF-8" standalone="no"?>
<svg
   xmlns:dc="http://purl.org/dc/elements/1.1/"
   xmlns:cc="http://creativecommons.org/ns#"
   xmlns:rdf="http://www.w3.org/1999/02/22-rdf-syntax-ns#"
   xmlns:svg="http://www.w3.org/2000/svg"
   xmlns="http://www.w3.org/2000/svg"
   id="svg8"
   version="1.1"
   viewBox="0 0 80 80"
   height="80"
   width="80">
  <defs
     id="defs2">
    <clipPath
       id="clipPath1438"
       clipPathUnits="userSpaceOnUse">
      <rect
         style="fill:#ff0000;stroke:#007aff;stroke-width:0;stroke-linecap:round"
         id="rect1440"
         width="80"
         height="80"
         x="-543.42548"
         y="289.42929" />
    </clipPath>
  </defs>
  <metadata
     id="metadata5">
    <rdf:RDF>
      <cc:Work
         rdf:about="">
        <dc:format>image/svg+xml</dc:format>
        <dc:type
           rdf:resource="http://purl.org/dc/dcmitype/StillImage" />
        <dc:title></dc:title>
      </cc:Work>
    </rdf:RDF>
  </metadata>
  <g
     transform="translate(543.42548,-289.42929)"
     id="layer1">
    <path
       clip-path="url(#clipPath1438)"
       d="m -539.90181,324.21839 31.26544,-31.26544 m -52.10906,10.42182 31.26543,-31.26544 m -41.68725,20.84362 31.26544,-31.26544 m -41.68725,18.75927 42.72943,42.72944 m -1.04218,1.04217 31.26544,-31.26544 m -41.68725,20.84362 31.26543,-31.26542 m -41.68724,20.84362 31.26543,-31.26544 m -41.68725,20.84362 31.26544,-31.26544 m -12.50617,-10.4218 42.72943,42.72943 m -71.91051,-13.54836 42.72943,42.72942 m -42.72943,-40.64505 31.26544,-31.26543 m -31.26544,31.26543 31.26544,-31.26543 m 93.79631,156.32715 31.26544,-31.26543 m -41.68725,20.84362 31.26543,-31.26543 m -41.68724,20.84362 31.26543,-31.26544 m -41.68725,20.84363 31.26544,-31.26544 m -41.68725,18.75926 42.72943,42.72944 m -1.04218,1.04217 31.26544,-31.26543 m -41.68725,20.84362 31.26543,-31.26543 m -41.68724,20.84362 31.26543,-31.26544 m -41.68725,20.84363 31.26544,-31.26544 m -12.50617,-10.42181 42.72943,42.72943 m -71.91051,-13.54836 42.72943,42.72943 m -42.72943,-40.64506 31.26544,-31.26543 m -41.68725,20.84362 31.26543,-31.26543 m -41.68724,20.84362 31.26543,-31.26544 m -41.68725,20.84363 31.26544,-31.26544 m -41.68725,18.75926 42.72943,42.72944 m -1.04218,1.04217 31.26544,-31.26543 m -41.68725,20.84362 31.26543,-31.26543 m -41.68724,20.84362 31.26543,-31.26544 m -41.68725,20.84363 31.26544,-31.26544 m -41.68725,20.84363 31.26544,-31.26544 m -2.08436,0 42.72943,42.72943 m -71.91051,-13.54836 42.72943,42.72943"
       style="fill:none;stroke:#000000;stroke-width:3.28929;stroke-linecap:round;stroke-linejoin:miter;stroke-miterlimit:4;stroke-dasharray:none;stroke-opacity:1"
       id="use863-7-3-0" />
  </g>
</svg>
